<?xml version="1.0" encoding="UTF-8" standalone="no"?>
<svg width="48px" height="54px" viewBox="0 0 48 54" version="1.1" xmlns="http://www.w3.org/2000/svg" xmlns:xlink="http://www.w3.org/1999/xlink" xmlns:sketch="http://www.bohemiancoding.com/sketch/ns">
    <!-- Generator: Sketch 3.3.2 (12043) - http://www.bohemiancoding.com/sketch -->
    <title>Fill 8 + Fill 9</title>
    <desc>Created with Sketch.</desc>
    <defs></defs>
    <g id="Page-1" stroke="none" stroke-width="1" fill="none" fill-rule="evenodd" sketch:type="MSPage">
        <g id="Fill-8-+-Fill-9" sketch:type="MSLayerGroup" fill="#000033">
            <path d="M17.193,2.966 C13.942,4.308 11.02,6.279 8.579,8.726 C6.135,11.174 4.161,14.097 2.816,17.347 C1.524,20.465 0.802,23.898 0.802,27.482 C0.802,31.067 1.524,34.5 2.816,37.629 C4.161,40.867 6.135,43.79 8.579,46.238 C11.02,48.685 13.942,50.656 17.193,51.997 C20.315,53.298 23.743,54.012 27.333,54.012 C30.923,54.012 34.35,53.298 37.476,51.997 C40.724,50.656 43.645,48.685 46.089,46.238 C46.579,45.74 46.579,44.949 46.089,44.462 C45.601,43.963 44.794,43.963 44.301,44.462 C42.087,46.67 39.438,48.446 36.512,49.67 C33.69,50.839 30.587,51.477 27.333,51.477 C24.087,51.477 20.976,50.839 18.157,49.67 C15.22,48.446 12.571,46.67 10.364,44.462 C8.149,42.242 6.364,39.588 5.144,36.664 C3.98,33.85 3.333,30.73 3.333,27.482 C3.333,24.234 3.98,21.126 5.144,18.31 C6.364,15.375 8.149,12.734 10.364,10.513 C12.571,8.294 15.22,6.517 18.157,5.294 C20.976,4.135 24.087,3.486 27.333,3.486 C30.587,3.486 33.69,4.135 36.512,5.294 C38.925,6.302 41.155,7.686 43.106,9.398 C43.013,10.188 43.398,11.012 44.146,11.434 C45.155,12.018 46.437,11.671 47.02,10.675 C47.601,9.657 47.257,8.38 46.252,7.795 C45.808,7.536 45.298,7.461 44.831,7.546 C42.662,5.642 40.188,4.091 37.476,2.966 C34.35,1.666 30.923,0.952 27.333,0.952 C23.743,0.952 20.315,1.666 17.193,2.966" id="Fill-8" sketch:type="MSShapeGroup"></path>
            <path d="M36.219,22.144 C36.82,22.144 37.313,22.636 37.313,23.236 C37.313,23.841 36.82,24.329 36.219,24.329 C35.617,24.329 35.131,23.841 35.131,23.236 C35.131,22.636 35.617,22.144 36.219,22.144 L36.219,22.144 Z M18.36,17.654 L14.494,17.654 L14.494,18.265 L18.139,18.265 L18.36,17.654 L18.36,17.654 Z M13.094,18.265 L12.197,18.265 C11.555,18.265 11.025,18.787 11.025,19.431 L11.025,37.42 C11.025,38.063 11.555,38.587 12.197,38.587 L40.26,38.587 C40.896,38.587 41.426,38.063 41.426,37.42 L41.426,19.431 C41.426,18.787 40.896,18.265 40.26,18.265 L34.318,18.265 L33.08,14.867 C32.941,14.378 32.49,14.013 31.949,14.013 L20.502,14.013 C20.02,14.013 19.575,14.308 19.407,14.783 L18.872,16.253 L13.791,16.253 C13.406,16.253 13.094,16.565 13.094,16.949 L13.094,18.265 L13.094,18.265 Z M26.226,22.914 L26.226,22.914 C27.308,22.914 28.288,23.352 29.004,24.063 C29.737,24.796 30.158,25.798 30.158,26.842 C30.158,28.993 28.379,30.77 26.226,30.77 C24.061,30.77 22.293,29 22.293,26.842 C22.293,24.684 24.073,22.914 26.226,22.914 L26.226,22.914 Z M28.018,25.052 L28.018,25.052 C28.475,25.51 28.75,26.141 28.75,26.842 C28.75,28.224 27.608,29.367 26.226,29.367 C24.831,29.367 23.7,28.236 23.7,26.842 C23.7,25.446 24.831,24.314 26.226,24.314 C26.923,24.314 27.561,24.598 28.018,25.052 L28.018,25.052 Z M18.949,20.601 L13.37,20.601 L13.37,36.25 L39.081,36.25 L39.081,20.601 L33.501,20.601 L33.501,20.597 C33.019,20.597 32.575,20.302 32.4,19.827 L31.138,16.349 L21.319,16.349 L20.08,19.743 C19.948,20.239 19.491,20.601 18.949,20.601 L18.949,20.601 Z M26.226,18.776 L26.226,18.776 C30.663,18.776 34.295,22.402 34.295,26.838 C34.295,31.264 30.651,34.908 26.226,34.908 C21.787,34.908 18.156,31.275 18.156,26.838 C18.156,22.406 21.794,18.776 26.226,18.776 L26.226,18.776 Z M20.502,26.838 C20.502,23.683 23.068,21.111 26.226,21.111 C29.376,21.111 31.956,23.682 31.956,26.838 C31.956,29.98 29.364,32.568 26.226,32.568 C23.068,32.568 20.502,29.991 20.502,26.838 L20.502,26.838 Z" id="Fill-9" sketch:type="MSShapeGroup"></path>
        </g>
    </g>
</svg>