<?xml version="1.0" encoding="UTF-8" standalone="no"?>
<svg width="55px" height="55px" viewBox="0 0 55 55" version="1.1" xmlns="http://www.w3.org/2000/svg" xmlns:xlink="http://www.w3.org/1999/xlink" xmlns:sketch="http://www.bohemiancoding.com/sketch/ns">
    <!-- Generator: Sketch 3.3.2 (12043) - http://www.bohemiancoding.com/sketch -->
    <title>Group</title>
    <desc>Created with Sketch.</desc>
    <defs></defs>
    <g id="Page-1" stroke="none" stroke-width="1" fill="none" fill-rule="evenodd" sketch:type="MSPage">
        <g id="Group" sketch:type="MSLayerGroup" fill="#000033">
            <path d="M15.061,14.208 L25.42,14.208 C26.053,14.208 26.559,14.721 26.559,15.35 L26.559,25.707 C26.559,26.339 26.053,26.849 25.42,26.849 L15.061,26.849 C14.429,26.849 13.923,26.339 13.923,25.707 L13.923,15.35 C13.923,14.721 14.429,14.208 15.061,14.208" id="Fill-3" sketch:type="MSShapeGroup"></path>
            <path d="M30.051,14.208 L40.41,14.208 C41.043,14.208 41.551,14.721 41.551,15.35 L41.551,25.707 C41.551,26.339 41.043,26.849 40.41,26.849 L30.051,26.849 C29.421,26.849 28.912,26.339 28.912,25.707 L28.912,15.35 C28.912,14.721 29.421,14.208 30.051,14.208" id="Fill-4" sketch:type="MSShapeGroup"></path>
            <path d="M15.061,28.824 L25.42,28.824 C26.053,28.824 26.559,29.337 26.559,29.965 L26.559,40.323 C26.559,40.955 26.053,41.465 25.42,41.465 L15.061,41.465 C14.429,41.465 13.923,40.955 13.923,40.323 L13.923,29.965 C13.923,29.337 14.429,28.824 15.061,28.824" id="Fill-5" sketch:type="MSShapeGroup"></path>
            <path d="M30.051,28.824 L40.41,28.824 C41.043,28.824 41.551,29.337 41.551,29.965 L41.551,40.323 C41.551,40.955 41.043,41.465 40.41,41.465 L30.051,41.465 C29.421,41.465 28.912,40.955 28.912,40.323 L28.912,29.965 C28.912,29.337 29.421,28.824 30.051,28.824" id="Fill-6" sketch:type="MSShapeGroup"></path>
            <path d="M27.583,55.012 C12.656,55.012 0.51,42.868 0.51,27.941 C0.51,13.012 12.656,0.868 27.583,0.868 C42.51,0.868 54.656,13.012 54.656,27.941 C54.656,42.868 42.51,55.012 27.583,55.012 L27.583,55.012 Z M27.583,3.018 C13.843,3.018 2.662,14.199 2.662,27.941 C2.662,41.682 13.843,52.863 27.583,52.863 C41.324,52.863 52.504,41.682 52.504,27.941 C52.504,14.199 41.324,3.018 27.583,3.018 L27.583,3.018 Z" id="Fill-7" sketch:type="MSShapeGroup"></path>
        </g>
    </g>
</svg>