<?xml version="1.0" encoding="UTF-8" standalone="no"?>
<svg width="48px" height="54px" viewBox="0 0 48 54" version="1.1" xmlns="http://www.w3.org/2000/svg" xmlns:xlink="http://www.w3.org/1999/xlink" xmlns:sketch="http://www.bohemiancoding.com/sketch/ns">
    <!-- Generator: Sketch 3.3.2 (12043) - http://www.bohemiancoding.com/sketch -->
    <title>Group</title>
    <desc>Created with Sketch.</desc>
    <defs></defs>
    <g id="Page-1" stroke="none" stroke-width="1" fill="none" fill-rule="evenodd" sketch:type="MSPage">
        <g id="Group" sketch:type="MSLayerGroup" fill="#000033">
            <path d="M17.271,2.966 C14.019,4.308 11.098,6.279 8.656,8.726 C6.212,11.174 4.238,14.097 2.894,17.347 C1.602,20.465 0.879,23.898 0.879,27.482 C0.879,31.067 1.602,34.5 2.894,37.629 C4.238,40.867 6.212,43.79 8.656,46.238 C11.098,48.685 14.019,50.656 17.271,51.997 C20.393,53.298 23.82,54.012 27.41,54.012 C31,54.012 34.427,53.298 37.553,51.997 C40.801,50.656 43.723,48.685 46.166,46.238 C46.656,45.74 46.656,44.949 46.166,44.462 C45.678,43.963 44.871,43.963 44.378,44.462 C42.164,46.67 39.516,48.446 36.589,49.67 C33.768,50.839 30.664,51.477 27.41,51.477 C24.164,51.477 21.053,50.839 18.234,49.67 C15.297,48.446 12.648,46.67 10.441,44.462 C8.227,42.242 6.441,39.588 5.221,36.664 C4.058,33.85 3.41,30.73 3.41,27.482 C3.41,24.234 4.058,21.126 5.221,18.31 C6.441,15.375 8.227,12.734 10.441,10.513 C12.648,8.294 15.297,6.517 18.234,5.294 C21.053,4.135 24.164,3.486 27.41,3.486 C30.664,3.486 33.768,4.135 36.589,5.294 C39.002,6.302 41.232,7.686 43.184,9.398 C43.09,10.188 43.475,11.012 44.223,11.434 C45.232,12.018 46.514,11.671 47.098,10.675 C47.678,9.657 47.334,8.38 46.329,7.795 C45.885,7.536 45.375,7.461 44.908,7.546 C42.739,5.642 40.266,4.091 37.553,2.966 C34.427,1.666 31,0.952 27.41,0.952 C23.82,0.952 20.393,1.666 17.271,2.966" id="Fill-10" sketch:type="MSShapeGroup"></path>
            <path d="M42.869,21 L12.131,21 C11.506,21 11,20.493 11,19.869 L11,17.131 C11,16.506 11.506,16 12.131,16 L42.869,16 C43.494,16 44,16.506 44,17.131 L44,19.869 C44,20.493 43.494,21 42.869,21" id="Fill-11" sketch:type="MSShapeGroup"></path>
            <path d="M42.869,31 L12.131,31 C11.506,31 11,30.493 11,29.869 L11,27.13 C11,26.506 11.506,26 12.131,26 L42.869,26 C43.494,26 44,26.506 44,27.13 L44,29.869 C44,30.493 43.494,31 42.869,31" id="Fill-12" sketch:type="MSShapeGroup"></path>
            <path d="M42.869,40 L12.131,40 C11.506,40 11,39.493 11,38.869 L11,36.13 C11,35.506 11.506,35 12.131,35 L42.869,35 C43.494,35 44,35.506 44,36.13 L44,38.869 C44,39.493 43.494,40 42.869,40" id="Fill-13" sketch:type="MSShapeGroup"></path>
        </g>
    </g>
</svg>