<?xml version="1.0" encoding="UTF-8" standalone="no"?>
<svg width="48px" height="54px" viewBox="0 0 48 54" version="1.1" xmlns="http://www.w3.org/2000/svg" xmlns:xlink="http://www.w3.org/1999/xlink" xmlns:sketch="http://www.bohemiancoding.com/sketch/ns">
    <!-- Generator: Sketch 3.3.2 (12043) - http://www.bohemiancoding.com/sketch -->
    <title>Fill 1 + Fill 2</title>
    <desc>Created with Sketch.</desc>
    <defs></defs>
    <g id="Page-1" stroke="none" stroke-width="1" fill="none" fill-rule="evenodd" sketch:type="MSPage">
        <g id="Fill-1-+-Fill-2" sketch:type="MSLayerGroup" fill="#000033">
            <path d="M17.315,2.966 C14.064,4.308 11.143,6.279 8.701,8.726 C6.257,11.174 4.283,14.097 2.938,17.347 C1.646,20.465 0.924,23.898 0.924,27.482 C0.924,31.067 1.646,34.5 2.938,37.629 C4.283,40.867 6.257,43.79 8.701,46.238 C11.143,48.685 14.064,50.656 17.315,51.997 C20.438,53.298 23.865,54.012 27.455,54.012 C31.045,54.012 34.472,53.298 37.598,51.997 C40.846,50.656 43.768,48.685 46.211,46.238 C46.701,45.74 46.701,44.949 46.211,44.462 C45.723,43.963 44.916,43.963 44.423,44.462 C42.209,46.67 39.561,48.446 36.634,49.67 C33.812,50.839 30.709,51.477 27.455,51.477 C24.209,51.477 21.098,50.839 18.279,49.67 C15.342,48.446 12.693,46.67 10.486,44.462 C8.271,42.242 6.486,39.588 5.266,36.664 C4.103,33.85 3.455,30.73 3.455,27.482 C3.455,24.234 4.103,21.126 5.266,18.31 C6.486,15.375 8.271,12.734 10.486,10.513 C12.693,8.294 15.342,6.517 18.279,5.294 C21.098,4.135 24.209,3.486 27.455,3.486 C30.709,3.486 33.812,4.135 36.634,5.294 C39.047,6.302 41.277,7.686 43.228,9.398 C43.135,10.188 43.52,11.012 44.268,11.434 C45.277,12.018 46.559,11.671 47.143,10.675 C47.723,9.657 47.379,8.38 46.374,7.795 C45.93,7.536 45.42,7.461 44.953,7.546 C42.784,5.642 40.311,4.091 37.598,2.966 C34.472,1.666 31.045,0.952 27.455,0.952 C23.865,0.952 20.438,1.666 17.315,2.966" id="Fill-1" sketch:type="MSShapeGroup"></path>
            <path d="M28.724,34.81 L24.174,31.549 C24.076,31.675 23.951,31.79 23.84,31.907 L23.84,31.912 L23.812,31.936 C22.379,33.354 20.402,34.235 18.231,34.235 C16.033,34.235 14.057,33.349 12.624,31.912 C11.19,30.477 10.3,28.491 10.3,26.301 C10.3,24.109 11.19,22.126 12.624,20.688 C14.057,19.25 16.033,18.364 18.231,18.364 C20.416,18.364 22.393,19.25 23.84,20.688 L23.84,20.696 L23.867,20.72 C23.979,20.825 24.076,20.936 24.174,21.049 L28.724,17.79 C28.265,16.924 28,15.936 28,14.885 C28,13.185 28.696,11.636 29.81,10.52 C30.923,9.407 32.468,8.714 34.179,8.714 C35.877,8.714 37.421,9.407 38.534,10.52 L38.534,10.527 L38.549,10.52 C39.662,11.636 40.357,13.185 40.357,14.885 C40.357,16.59 39.662,18.137 38.549,19.25 L38.465,19.325 C37.352,20.4 35.835,21.061 34.179,21.061 C32.468,21.061 30.923,20.365 29.81,19.25 L29.67,19.109 L25.12,22.367 C25.788,23.525 26.163,24.867 26.163,26.301 C26.163,27.734 25.788,29.078 25.12,30.235 L29.67,33.496 L29.81,33.349 C30.923,32.235 32.468,31.54 34.179,31.54 C35.877,31.54 37.421,32.235 38.534,33.349 L38.534,33.352 L38.549,33.349 C39.662,34.465 40.357,36.009 40.357,37.714 C40.357,39.419 39.662,40.964 38.549,42.077 C37.436,43.195 35.877,43.885 34.179,43.885 C32.468,43.885 30.923,43.195 29.81,42.077 C28.696,40.964 28,39.419 28,37.714 C28,36.664 28.265,35.675 28.724,34.81 L28.724,34.81 Z M21.934,22.602 L21.934,22.595 C20.987,21.651 19.679,21.068 18.231,21.068 C16.784,21.068 15.477,21.655 14.53,22.602 C13.584,23.548 12.999,24.856 12.999,26.301 C12.999,27.744 13.584,29.056 14.53,29.998 C15.477,30.945 16.784,31.533 18.231,31.533 C19.679,31.533 20.987,30.945 21.934,30.005 L21.934,29.998 C22.88,29.052 23.464,27.744 23.464,26.301 C23.464,24.856 22.88,23.548 21.934,22.602 L21.934,22.602 Z M36.628,12.433 L36.628,12.433 C36.002,11.808 35.139,11.418 34.179,11.418 C33.219,11.418 32.356,11.809 31.729,12.436 C31.104,13.063 30.714,13.93 30.714,14.885 C30.714,15.847 31.104,16.712 31.729,17.342 C32.356,17.969 33.219,18.358 34.179,18.358 C35.111,18.358 35.96,17.994 36.572,17.402 L36.628,17.342 C37.254,16.712 37.644,15.843 37.644,14.885 C37.644,13.93 37.254,13.063 36.628,12.436 L36.628,12.433 L36.628,12.433 Z M36.628,35.259 L36.628,35.259 C36.002,34.633 35.139,34.246 34.179,34.246 C33.219,34.246 32.356,34.636 31.729,35.261 C31.104,35.888 30.714,36.755 30.714,37.714 C30.714,38.671 31.104,39.538 31.729,40.164 C32.356,40.79 33.219,41.179 34.179,41.179 C35.139,41.179 36.002,40.79 36.628,40.164 C37.254,39.538 37.644,38.671 37.644,37.714 C37.644,36.755 37.254,35.888 36.628,35.261 L36.628,35.259 L36.628,35.259 Z" id="Fill-2" sketch:type="MSShapeGroup"></path>
        </g>
    </g>
</svg>