<?xml version="1.0" encoding="UTF-8" standalone="no"?>
<svg width="262px" height="123px" viewBox="0 0 262 123" version="1.1" xmlns="http://www.w3.org/2000/svg" xmlns:xlink="http://www.w3.org/1999/xlink" xmlns:sketch="http://www.bohemiancoding.com/sketch/ns">
    <!-- Generator: Sketch 3.3.2 (12043) - http://www.bohemiancoding.com/sketch -->
    <title>Imported Layers</title>
    <desc>Created with Sketch.</desc>
    <defs></defs>
    <g id="Page-1" stroke="none" stroke-width="1" fill="none" fill-rule="evenodd" sketch:type="MSPage">
        <g id="Imported-Layers" sketch:type="MSLayerGroup" fill="#000033">
            <path d="M124.871,0.54 C96.377,0.54 73.278,23.9 73.278,52.714 C73.278,81.527 96.377,104.885 124.871,104.885 C153.365,104.885 176.465,81.527 176.465,52.714 C176.465,23.9 153.365,0.54 124.871,0.54 L124.871,0.54 Z M124.871,90.026 C104.311,90.026 87.642,73.171 87.642,52.38 C87.642,31.588 104.311,14.731 124.871,14.731 C145.433,14.731 162.102,31.588 162.102,52.38 C162.102,73.171 145.433,90.026 124.871,90.026 L124.871,90.026 Z" id="Fill-1" sketch:type="MSShapeGroup"></path>
            <path d="M182.958,0.435 L198.599,0.238 L223.106,52.143 L246.717,0.139 L261.961,0.238 L231.077,65.99 L231.06,104.717 L215.137,104.744 L215.137,66.188 L182.958,0.435" id="Fill-2" sketch:type="MSShapeGroup"></path>
            <path d="M57.231,0.338 L41.69,0.338 L41.69,77.745 C41.69,77.745 41.39,90.697 28.937,90.697 L0.046,90.697 L0.046,104.745 L28.739,104.745 C28.739,104.745 53.943,104.346 57.53,77.745 L57.231,0.338" id="Fill-3" sketch:type="MSShapeGroup"></path>
            <path d="M10.155,119.965 L11.221,120.347 C11.026,120.616 10.806,120.874 10.559,121.12 C9.354,122.325 7.9,122.927 6.194,122.927 C4.497,122.927 3.045,122.325 1.841,121.12 C0.637,119.916 0.034,118.463 0.034,116.755 C0.034,115.059 0.637,113.608 1.841,112.403 C3.045,111.198 4.497,110.596 6.194,110.596 C7.9,110.596 9.354,111.198 10.559,112.403 C10.806,112.649 11.026,112.905 11.221,113.166 L10.155,113.559 C10.043,113.423 9.923,113.288 9.796,113.154 C8.801,112.167 7.601,111.673 6.194,111.673 C4.795,111.673 3.599,112.169 2.604,113.159 C1.609,114.151 1.111,115.35 1.111,116.755 C1.111,118.162 1.609,119.363 2.604,120.357 C3.599,121.352 4.795,121.851 6.194,121.851 C7.601,121.851 8.801,121.352 9.796,120.357 C9.923,120.231 10.043,120.1 10.155,119.965" id="Fill-4" sketch:type="MSShapeGroup"></path>
            <path d="M30.27,110.596 C31.976,110.596 33.429,111.198 34.629,112.403 C35.83,113.608 36.43,115.061 36.43,116.768 C36.43,118.464 35.83,119.916 34.629,121.12 C33.429,122.325 31.976,122.927 30.27,122.927 C28.572,122.927 27.121,122.325 25.916,121.12 C24.712,119.916 24.11,118.464 24.11,116.768 C24.11,115.061 24.712,113.608 25.916,112.403 C27.121,111.198 28.572,110.596 30.27,110.596 L30.27,110.596 Z M26.668,113.166 C25.673,114.16 25.176,115.361 25.176,116.768 C25.176,118.174 25.673,119.373 26.668,120.363 C27.663,121.355 28.864,121.851 30.27,121.851 C31.677,121.851 32.877,121.355 33.872,120.363 C34.867,119.373 35.364,118.174 35.364,116.768 C35.364,115.361 34.867,114.16 33.872,113.166 C32.877,112.17 31.677,111.673 30.27,111.673 C28.864,111.673 27.663,112.17 26.668,113.166 L26.668,113.166 Z" id="Fill-5" sketch:type="MSShapeGroup"></path>
            <path d="M49.991,111.595 L51.001,111.595 L51.001,111.853 C51.63,111.247 52.381,110.943 53.257,110.943 C54.162,110.943 54.933,111.261 55.568,111.898 C55.74,112.069 55.89,112.256 56.017,112.459 C56.144,112.264 56.297,112.077 56.477,111.898 C57.113,111.261 57.883,110.943 58.788,110.943 C59.693,110.943 60.464,111.261 61.1,111.898 C61.705,112.511 62.023,113.248 62.054,114.108 L62.054,122.613 L61.043,122.613 L61.043,114.108 L61.055,114.108 C61.024,113.525 60.804,113.027 60.393,112.616 C59.944,112.175 59.409,111.954 58.788,111.954 C58.167,111.954 57.634,112.175 57.189,112.616 C56.744,113.057 56.522,113.608 56.522,114.265 L56.522,122.613 L55.512,122.613 L55.512,114.108 L55.523,114.108 C55.493,113.525 55.272,113.027 54.861,112.616 C54.412,112.175 53.877,111.954 53.257,111.954 C52.636,111.954 52.104,112.175 51.663,112.616 C51.274,112.998 51.054,113.464 51.001,114.019 L51.001,122.613 L49.991,122.613 L49.991,111.595" id="Fill-6" sketch:type="MSShapeGroup"></path>
            <path d="M80.608,122.77 C79.232,122.77 78.136,122.362 77.321,121.547 C76.506,120.732 76.087,119.703 76.064,118.463 L76.064,111.595 L77.074,111.595 L77.074,118.372 C77.074,119.307 77.415,120.103 78.095,120.762 C78.769,121.427 79.603,121.761 80.598,121.761 C81.525,121.761 82.327,121.429 83.005,120.768 C83.681,120.105 84.02,119.307 84.02,118.372 L84.02,111.595 L85.029,111.595 L85.029,118.463 C85.007,119.703 84.588,120.732 83.772,121.547 C82.958,122.362 81.903,122.77 80.608,122.77" id="Fill-7" sketch:type="MSShapeGroup"></path>
            <path d="M100.274,114.053 L100.274,122.613 L99.264,122.613 L99.264,111.595 L100.274,111.595 L100.274,112.302 C101.194,111.389 102.264,110.932 103.483,110.932 C104.785,110.932 105.843,111.34 106.658,112.156 C107.474,112.971 107.893,114 107.915,115.242 L107.915,122.613 L106.905,122.613 L106.905,115.331 C106.905,114.396 106.566,113.597 105.89,112.935 C105.212,112.274 104.411,111.943 103.483,111.943 C102.556,111.943 101.755,112.268 101.082,112.919 C100.715,113.285 100.446,113.663 100.274,114.053" id="Fill-8" sketch:type="MSShapeGroup"></path>
            <path d="M123.593,107.981 C123.79,108.175 123.89,108.411 123.89,108.689 C123.89,108.972 123.79,109.213 123.593,109.407 C123.394,109.602 123.157,109.699 122.88,109.699 C122.603,109.699 122.365,109.602 122.167,109.407 C121.969,109.213 121.87,108.972 121.87,108.689 C121.87,108.411 121.969,108.175 122.167,107.981 C122.365,107.788 122.603,107.69 122.88,107.69 C123.157,107.69 123.394,107.788 123.593,107.981 L123.593,107.981 Z M122.375,111.595 L123.385,111.595 L123.385,122.613 L122.375,122.613 L122.375,111.595 Z" id="Fill-9" sketch:type="MSShapeGroup"></path>
            <path d="M147.291,119.965 L148.357,120.347 C148.163,120.616 147.942,120.874 147.695,121.12 C146.491,122.325 145.036,122.927 143.331,122.927 C141.633,122.927 140.182,122.325 138.977,121.12 C137.773,119.916 137.171,118.463 137.171,116.755 C137.171,115.059 137.773,113.608 138.977,112.403 C140.182,111.198 141.633,110.596 143.331,110.596 C145.036,110.596 146.491,111.198 147.695,112.403 C147.942,112.649 148.163,112.905 148.357,113.166 L147.291,113.559 C147.179,113.423 147.06,113.288 146.933,113.154 C145.937,112.167 144.737,111.673 143.331,111.673 C141.932,111.673 140.735,112.169 139.74,113.159 C138.745,114.151 138.248,115.35 138.248,116.755 C138.248,118.162 138.745,119.363 139.74,120.357 C140.735,121.352 141.932,121.851 143.331,121.851 C144.737,121.851 145.937,121.352 146.933,120.357 C147.06,120.231 147.179,120.1 147.291,119.965" id="Fill-10" sketch:type="MSShapeGroup"></path>
            <path d="M173.813,122.613 L172.803,122.613 L172.803,120.369 C172.609,120.631 172.395,120.881 172.164,121.12 C170.959,122.325 169.504,122.927 167.799,122.927 C166.101,122.927 164.649,122.325 163.445,121.12 C162.241,119.916 161.639,118.464 161.639,116.768 C161.639,115.061 162.241,113.608 163.445,112.403 C164.649,111.198 166.101,110.596 167.799,110.596 C169.504,110.596 170.959,111.198 172.164,112.403 C172.395,112.642 172.609,112.892 172.803,113.154 L172.803,111.595 L173.813,111.595 L173.813,122.613 L173.813,122.613 Z M172.803,117.765 L172.803,115.768 C172.616,114.781 172.149,113.914 171.401,113.166 C170.406,112.17 169.206,111.673 167.799,111.673 C166.393,111.673 165.192,112.17 164.197,113.166 C163.202,114.16 162.705,115.361 162.705,116.768 C162.705,118.174 163.202,119.373 164.197,120.363 C165.192,121.355 166.393,121.851 167.799,121.851 C169.206,121.851 170.406,121.352 171.401,120.357 C172.149,119.609 172.616,118.746 172.803,117.765 L172.803,117.765 Z" id="Fill-11" sketch:type="MSShapeGroup"></path>
            <path d="M197.495,119.965 L198.561,120.347 C198.367,120.616 198.146,120.874 197.899,121.12 C196.695,122.325 195.24,122.927 193.535,122.927 C191.836,122.927 190.386,122.325 189.181,121.12 C187.977,119.916 187.375,118.463 187.375,116.755 C187.375,115.059 187.977,113.608 189.181,112.403 C190.386,111.198 191.836,110.596 193.535,110.596 C195.24,110.596 196.695,111.198 197.899,112.403 C198.146,112.649 198.367,112.905 198.561,113.166 L197.495,113.559 C197.383,113.423 197.263,113.288 197.136,113.154 C196.141,112.167 194.941,111.673 193.535,111.673 C192.136,111.673 190.939,112.169 189.944,113.159 C188.949,114.151 188.452,115.35 188.452,116.755 C188.452,118.162 188.949,119.363 189.944,120.357 C190.939,121.352 192.136,121.851 193.535,121.851 C194.941,121.851 196.141,121.352 197.136,120.357 C197.263,120.231 197.383,120.1 197.495,119.965" id="Fill-12" sketch:type="MSShapeGroup"></path>
            <path d="M213.565,107.981 C213.764,108.175 213.863,108.411 213.863,108.689 C213.863,108.972 213.764,109.213 213.565,109.407 C213.366,109.602 213.13,109.699 212.853,109.699 C212.576,109.699 212.338,109.602 212.14,109.407 C211.941,109.213 211.843,108.972 211.843,108.689 C211.843,108.411 211.941,108.175 212.14,107.981 C212.338,107.788 212.576,107.69 212.853,107.69 C213.13,107.69 213.366,107.788 213.565,107.981 L213.565,107.981 Z M212.348,111.595 L213.358,111.595 L213.358,122.613 L212.348,122.613 L212.348,111.595 Z" id="Fill-13" sketch:type="MSShapeGroup"></path>
            <path d="M233.305,110.596 C235.01,110.596 236.463,111.198 237.663,112.403 C238.865,113.608 239.464,115.061 239.464,116.768 C239.464,118.464 238.865,119.916 237.663,121.12 C236.463,122.325 235.01,122.927 233.305,122.927 C231.606,122.927 230.155,122.325 228.951,121.12 C227.747,119.916 227.145,118.464 227.145,116.768 C227.145,115.061 227.747,113.608 228.951,112.403 C230.155,111.198 231.606,110.596 233.305,110.596 L233.305,110.596 Z M229.703,113.166 C228.708,114.16 228.211,115.361 228.211,116.768 C228.211,118.174 228.708,119.373 229.703,120.363 C230.698,121.355 231.898,121.851 233.305,121.851 C234.711,121.851 235.912,121.355 236.906,120.363 C237.901,119.373 238.398,118.174 238.398,116.768 C238.398,115.361 237.901,114.16 236.906,113.166 C235.912,112.17 234.711,111.673 233.305,111.673 C231.898,111.673 230.698,112.17 229.703,113.166 L229.703,113.166 Z M235.762,107.051 L233.013,109.149 L232.07,109.149 L233.899,107.051 L235.762,107.051 L235.762,107.051 Z" id="Fill-14" sketch:type="MSShapeGroup"></path>
            <path d="M254.036,114.053 L254.036,122.613 L253.026,122.613 L253.026,111.595 L254.036,111.595 L254.036,112.302 C254.956,111.389 256.025,110.932 257.245,110.932 C258.546,110.932 259.604,111.34 260.42,112.156 C261.235,112.971 261.654,114 261.677,115.242 L261.677,122.613 L260.667,122.613 L260.667,115.331 C260.667,114.396 260.328,113.597 259.652,112.935 C258.974,112.274 258.172,111.943 257.245,111.943 C256.317,111.943 255.517,112.268 254.844,112.919 C254.477,113.285 254.208,113.663 254.036,114.053" id="Fill-15" sketch:type="MSShapeGroup"></path>
        </g>
    </g>
</svg>