<?xml version="1.0" encoding="UTF-8" standalone="no"?>
<svg width="120px" height="120px" viewBox="0 0 120 120" version="1.1" xmlns="http://www.w3.org/2000/svg" xmlns:xlink="http://www.w3.org/1999/xlink" xmlns:sketch="http://www.bohemiancoding.com/sketch/ns">
    <!-- Generator: Sketch 3.3.2 (12043) - http://www.bohemiancoding.com/sketch -->
    <title>playbtn</title>
    <desc>Created with Sketch.</desc>
    <defs></defs>
    <g id="Page-1" stroke="none" stroke-width="1" fill="none" fill-rule="evenodd" sketch:type="MSPage">
        <g id="playbtn" sketch:type="MSLayerGroup">
            <path d="M59.7951832,0.353089005 C26.8328796,0.353089005 0.111204188,27.0735079 0.111204188,60.0376963 C0.111204188,93.0006283 26.8328796,119.722304 59.7951832,119.722304 C92.76,119.722304 119.480419,93.0006283 119.480419,60.0376963 C119.480419,27.0735079 92.76,0.353089005 59.7951832,0.353089005" id="circle" fill-opacity="0.8" fill="#FFFFFF" sketch:type="MSShapeGroup"></path>
            <path d="M90.366911,62.9962304 L42.9851309,90.3574869 C41.3459686,91.2973822 39.2638743,90.7457592 38.3233508,89.1172775 C38.005445,88.5706806 37.8659686,87.9838743 37.8659686,87.394555 L37.8464921,87.394555 L37.8464921,32.6827225 C37.8464921,30.7922513 39.3851309,29.2611518 41.2655497,29.2611518 C41.9704712,29.2611518 42.6282723,29.4703665 43.1742408,29.8510995 L66.6791623,43.4117277 L90.366911,57.0867016 C91.998534,58.0366492 92.5489005,60.1287958 91.6090052,61.7491099 C91.2929843,62.2831414 90.8638743,62.6965445 90.366911,62.9962304 L90.366911,62.9962304 Z M63.2525654,70.7704712 L63.2525654,70.7704712 L81.8324607,60.0433508 L63.2525654,49.3112042 L44.6934031,38.6010471 L44.6934031,81.4919372 L63.2525654,70.7704712 L63.2525654,70.7704712 Z" id="play" fill="#5D5D5D" sketch:type="MSShapeGroup"></path>
        </g>
    </g>
</svg>